<mxfile host="app.diagrams.net" modified="2024-01-20T21:04:54.353Z" agent="Mozilla/5.0 (Macintosh; Intel Mac OS X 10_15_7) AppleWebKit/537.36 (KHTML, like Gecko) Chrome/120.0.0.0 Safari/537.36" etag="rMleXs-HDYFu0i6NLTX9" version="22.1.21" type="device">
  <diagram name="Page-1" id="afQoHodcAvXpzbwKr9Sr">
    <mxGraphModel dx="1194" dy="606" grid="1" gridSize="10" guides="1" tooltips="1" connect="1" arrows="1" fold="1" page="1" pageScale="1" pageWidth="850" pageHeight="1100" math="0" shadow="0">
      <root>
        <mxCell id="0" />
        <mxCell id="1" parent="0" />
        <mxCell id="uU5BGlP82ffnO1x4aT3j-10" value="" style="endArrow=classic;html=1;rounded=0;fontStyle=0;entryX=-0.018;entryY=0.449;entryDx=0;entryDy=0;entryPerimeter=0;" parent="1" target="wetCiez2Dc8EenrUASXY-3" edge="1">
          <mxGeometry width="50" height="50" relative="1" as="geometry">
            <mxPoint x="300" y="170" as="sourcePoint" />
            <mxPoint x="568" y="214" as="targetPoint" />
          </mxGeometry>
        </mxCell>
        <mxCell id="uU5BGlP82ffnO1x4aT3j-11" value="R&amp;amp;D intensity" style="shape=parallelogram;perimeter=parallelogramPerimeter;whiteSpace=wrap;html=1;fixedSize=1;" parent="1" vertex="1">
          <mxGeometry x="430" y="400" width="178" height="30" as="geometry" />
        </mxCell>
        <mxCell id="uU5BGlP82ffnO1x4aT3j-12" value="" style="endArrow=classic;html=1;rounded=0;" parent="1" source="uU5BGlP82ffnO1x4aT3j-11" edge="1">
          <mxGeometry width="50" height="50" relative="1" as="geometry">
            <mxPoint x="550" y="390" as="sourcePoint" />
            <mxPoint x="470" y="230" as="targetPoint" />
          </mxGeometry>
        </mxCell>
        <mxCell id="uU5BGlP82ffnO1x4aT3j-16" value="Organizational slack" style="swimlane;whiteSpace=wrap;html=1;" parent="1" vertex="1">
          <mxGeometry x="388" y="85" width="200" height="80" as="geometry" />
        </mxCell>
        <mxCell id="uU5BGlP82ffnO1x4aT3j-17" value="Internal" style="whiteSpace=wrap;html=1;" parent="uU5BGlP82ffnO1x4aT3j-16" vertex="1">
          <mxGeometry x="10" y="44" width="80" height="30" as="geometry" />
        </mxCell>
        <mxCell id="uU5BGlP82ffnO1x4aT3j-20" value="" style="endArrow=classic;html=1;rounded=0;" parent="uU5BGlP82ffnO1x4aT3j-16" edge="1">
          <mxGeometry width="50" height="50" relative="1" as="geometry">
            <mxPoint x="129" y="73" as="sourcePoint" />
            <mxPoint x="129" y="145" as="targetPoint" />
          </mxGeometry>
        </mxCell>
        <mxCell id="uU5BGlP82ffnO1x4aT3j-18" value="External" style="whiteSpace=wrap;html=1;" parent="1" vertex="1">
          <mxGeometry x="490" y="128" width="90" height="30" as="geometry" />
        </mxCell>
        <mxCell id="wetCiez2Dc8EenrUASXY-3" value="&lt;font style=&quot;font-size: 14px;&quot;&gt;&lt;b&gt;Manufacturing firms&#39; Servitization&lt;/b&gt;&lt;/font&gt;" style="ellipse;whiteSpace=wrap;html=1;" parent="1" vertex="1">
          <mxGeometry x="640" y="211" width="140" height="135" as="geometry" />
        </mxCell>
        <mxCell id="wetCiez2Dc8EenrUASXY-11" value="&lt;h1 style=&quot;margin: 18pt 1cm 3pt 18pt; text-indent: -18pt; line-height: 24px; break-after: avoid; font-size: 12pt; font-family: &amp;quot;Times New Roman&amp;quot;, serif; color: rgb(37, 37, 37); text-align: start;&quot;&gt;&lt;a name=&quot;_Toc155864535&quot;&gt;&lt;strong&gt;&lt;span lang=&quot;EN-US&quot;&gt;Exploring the Servitization of Manufacturing Firms through Digital Technology Diversification and Technological Relatedness: The Moderating Role of Organizational Slack and R&amp;amp;D Intensity&lt;/span&gt;&lt;/strong&gt;&lt;/a&gt;&lt;span lang=&quot;EN-US&quot;&gt;&lt;/span&gt;&lt;/h1&gt;" style="text;html=1;strokeColor=none;fillColor=none;align=center;verticalAlign=middle;whiteSpace=wrap;rounded=0;" parent="1" vertex="1">
          <mxGeometry x="110" y="20" width="767" height="48" as="geometry" />
        </mxCell>
        <mxCell id="wetCiez2Dc8EenrUASXY-33" value="" style="endArrow=classic;html=1;rounded=0;exitX=1;exitY=0.75;exitDx=0;exitDy=0;" parent="1" source="aLaxaShNEx0uPcZiciP7-3" edge="1">
          <mxGeometry width="50" height="50" relative="1" as="geometry">
            <mxPoint x="390" y="320" as="sourcePoint" />
            <mxPoint x="625" y="285" as="targetPoint" />
          </mxGeometry>
        </mxCell>
        <mxCell id="wetCiez2Dc8EenrUASXY-46" style="edgeStyle=orthogonalEdgeStyle;rounded=0;orthogonalLoop=1;jettySize=auto;html=1;exitX=0.5;exitY=1;exitDx=0;exitDy=0;" parent="1" edge="1">
          <mxGeometry relative="1" as="geometry">
            <mxPoint x="401.5" y="331.0000000000001" as="sourcePoint" />
            <mxPoint x="401.5" y="331.0000000000001" as="targetPoint" />
          </mxGeometry>
        </mxCell>
        <mxCell id="wetCiez2Dc8EenrUASXY-51" value="&lt;font style=&quot;font-size: 14px;&quot;&gt;&lt;b&gt;Manufacturing firms&#39; Servitization&lt;/b&gt;&lt;/font&gt;" style="ellipse;whiteSpace=wrap;html=1;" parent="1" vertex="1">
          <mxGeometry x="640" y="620" width="140" height="135" as="geometry" />
        </mxCell>
        <mxCell id="wetCiez2Dc8EenrUASXY-52" value="" style="endArrow=classic;html=1;rounded=0;entryX=0;entryY=0.5;entryDx=0;entryDy=0;exitX=1;exitY=0.5;exitDx=0;exitDy=0;" parent="1" source="aLaxaShNEx0uPcZiciP7-9" target="aLaxaShNEx0uPcZiciP7-10" edge="1">
          <mxGeometry width="50" height="50" relative="1" as="geometry">
            <mxPoint x="280" y="680" as="sourcePoint" />
            <mxPoint x="360" y="780" as="targetPoint" />
          </mxGeometry>
        </mxCell>
        <mxCell id="wetCiez2Dc8EenrUASXY-59" value="" style="endArrow=classic;html=1;rounded=0;entryX=0;entryY=0.5;entryDx=0;entryDy=0;exitX=1.023;exitY=0.417;exitDx=0;exitDy=0;exitPerimeter=0;" parent="1" source="aLaxaShNEx0uPcZiciP7-9" target="wetCiez2Dc8EenrUASXY-51" edge="1">
          <mxGeometry width="50" height="50" relative="1" as="geometry">
            <mxPoint x="275" y="667.5" as="sourcePoint" />
            <mxPoint x="440" y="610" as="targetPoint" />
          </mxGeometry>
        </mxCell>
        <mxCell id="wetCiez2Dc8EenrUASXY-61" value="" style="endArrow=classic;html=1;rounded=0;entryX=-0.01;entryY=0.575;entryDx=0;entryDy=0;exitX=1;exitY=0.5;exitDx=0;exitDy=0;entryPerimeter=0;" parent="1" source="aLaxaShNEx0uPcZiciP7-10" target="wetCiez2Dc8EenrUASXY-51" edge="1">
          <mxGeometry width="50" height="50" relative="1" as="geometry">
            <mxPoint x="496" y="774.5" as="sourcePoint" />
            <mxPoint x="560" y="680" as="targetPoint" />
          </mxGeometry>
        </mxCell>
        <mxCell id="wetCiez2Dc8EenrUASXY-64" value="" style="endArrow=classic;html=1;rounded=0;exitX=0.5;exitY=1;exitDx=0;exitDy=0;" parent="1" source="wetCiez2Dc8EenrUASXY-77" edge="1">
          <mxGeometry width="50" height="50" relative="1" as="geometry">
            <mxPoint x="420.38800000000015" y="590.0000000000001" as="sourcePoint" />
            <mxPoint x="410" y="660" as="targetPoint" />
          </mxGeometry>
        </mxCell>
        <mxCell id="wetCiez2Dc8EenrUASXY-66" value="&lt;b style=&quot;border-color: var(--border-color); font-size: 14px;&quot;&gt;Study 2: Does Product Diversification Strategy Mediates the Relationship Between&lt;/b&gt;&lt;b style=&quot;border-color: var(--border-color); font-size: 14px;&quot;&gt;&amp;nbsp;Digital Technology Diversification and Manufacturing Firms Servitization: The Moderating Role of Organizational Slack and R&amp;amp;D Intensity&lt;/b&gt;" style="whiteSpace=wrap;html=1;" parent="1" vertex="1">
          <mxGeometry x="150" y="478" width="640" height="60" as="geometry" />
        </mxCell>
        <mxCell id="wetCiez2Dc8EenrUASXY-67" value="&lt;font style=&quot;font-size: 14px;&quot;&gt;Digital Technology Diversitification&lt;br&gt;&lt;/font&gt;" style="rounded=1;whiteSpace=wrap;html=1;" parent="1" vertex="1">
          <mxGeometry x="235" y="875" width="135" height="50" as="geometry" />
        </mxCell>
        <mxCell id="wetCiez2Dc8EenrUASXY-70" value="&lt;font style=&quot;font-size: 14px;&quot;&gt;&lt;b&gt;Manufacturing firms&#39; Servitization&lt;/b&gt;&lt;/font&gt;" style="ellipse;whiteSpace=wrap;html=1;" parent="1" vertex="1">
          <mxGeometry x="640" y="925" width="140" height="135" as="geometry" />
        </mxCell>
        <mxCell id="wetCiez2Dc8EenrUASXY-71" value="" style="endArrow=classic;html=1;rounded=0;entryX=-0.033;entryY=0.537;entryDx=0;entryDy=0;entryPerimeter=0;exitX=1;exitY=0.5;exitDx=0;exitDy=0;" parent="1" source="wetCiez2Dc8EenrUASXY-67" target="wetCiez2Dc8EenrUASXY-70" edge="1">
          <mxGeometry width="50" height="50" relative="1" as="geometry">
            <mxPoint x="270" y="1010" as="sourcePoint" />
            <mxPoint x="320" y="960" as="targetPoint" />
          </mxGeometry>
        </mxCell>
        <mxCell id="wetCiez2Dc8EenrUASXY-72" value="" style="endArrow=classic;html=1;rounded=0;entryX=-0.03;entryY=0.574;entryDx=0;entryDy=0;exitX=1;exitY=0.5;exitDx=0;exitDy=0;entryPerimeter=0;" parent="1" target="wetCiez2Dc8EenrUASXY-70" edge="1">
          <mxGeometry width="50" height="50" relative="1" as="geometry">
            <mxPoint x="390" y="1044.9999999999998" as="sourcePoint" />
            <mxPoint x="553" y="860" as="targetPoint" />
          </mxGeometry>
        </mxCell>
        <mxCell id="wetCiez2Dc8EenrUASXY-73" value="" style="endArrow=classic;html=1;rounded=0;exitX=0.5;exitY=0;exitDx=0;exitDy=0;" parent="1" source="uU5BGlP82ffnO1x4aT3j-11" edge="1">
          <mxGeometry width="50" height="50" relative="1" as="geometry">
            <mxPoint x="499" y="400" as="sourcePoint" />
            <mxPoint x="530" y="300" as="targetPoint" />
          </mxGeometry>
        </mxCell>
        <mxCell id="wetCiez2Dc8EenrUASXY-76" value="Organizational slack" style="swimlane;whiteSpace=wrap;html=1;" parent="1" vertex="1">
          <mxGeometry x="360" y="554" width="200" height="80" as="geometry" />
        </mxCell>
        <mxCell id="wetCiez2Dc8EenrUASXY-77" value="Internal" style="whiteSpace=wrap;html=1;" parent="wetCiez2Dc8EenrUASXY-76" vertex="1">
          <mxGeometry x="10" y="44" width="80" height="30" as="geometry" />
        </mxCell>
        <mxCell id="wetCiez2Dc8EenrUASXY-80" value="External" style="whiteSpace=wrap;html=1;" parent="wetCiez2Dc8EenrUASXY-76" vertex="1">
          <mxGeometry x="100" y="44" width="90" height="30" as="geometry" />
        </mxCell>
        <mxCell id="wetCiez2Dc8EenrUASXY-81" value="" style="endArrow=classic;html=1;rounded=0;" parent="1" edge="1">
          <mxGeometry width="50" height="50" relative="1" as="geometry">
            <mxPoint x="490" y="627" as="sourcePoint" />
            <mxPoint x="490" y="670" as="targetPoint" />
          </mxGeometry>
        </mxCell>
        <mxCell id="wetCiez2Dc8EenrUASXY-82" value="R&amp;amp;D intensity" style="shape=parallelogram;perimeter=parallelogramPerimeter;whiteSpace=wrap;html=1;fixedSize=1;" parent="1" vertex="1">
          <mxGeometry x="446" y="875" width="178" height="30" as="geometry" />
        </mxCell>
        <mxCell id="wetCiez2Dc8EenrUASXY-86" value="" style="endArrow=classic;html=1;rounded=0;exitX=0.403;exitY=-0.056;exitDx=0;exitDy=0;exitPerimeter=0;" parent="1" source="aLaxaShNEx0uPcZiciP7-12" edge="1">
          <mxGeometry width="50" height="50" relative="1" as="geometry">
            <mxPoint x="529.8700000000001" y="628.6600000000001" as="sourcePoint" />
            <mxPoint x="580" y="680" as="targetPoint" />
          </mxGeometry>
        </mxCell>
        <mxCell id="wetCiez2Dc8EenrUASXY-91" value="" style="endArrow=classic;html=1;rounded=0;exitX=0.5;exitY=1;exitDx=0;exitDy=0;" parent="1" source="wetCiez2Dc8EenrUASXY-82" edge="1">
          <mxGeometry width="50" height="50" relative="1" as="geometry">
            <mxPoint x="474" y="897.5" as="sourcePoint" />
            <mxPoint x="530" y="1020" as="targetPoint" />
          </mxGeometry>
        </mxCell>
        <mxCell id="wetCiez2Dc8EenrUASXY-93" value="" style="endArrow=classic;html=1;rounded=0;exitX=0.5;exitY=1;exitDx=0;exitDy=0;" parent="1" source="wetCiez2Dc8EenrUASXY-82" edge="1">
          <mxGeometry width="50" height="50" relative="1" as="geometry">
            <mxPoint x="350" y="1100" as="sourcePoint" />
            <mxPoint x="470" y="940" as="targetPoint" />
          </mxGeometry>
        </mxCell>
        <mxCell id="wetCiez2Dc8EenrUASXY-97" value="&lt;b style=&quot;border-color: var(--border-color); font-size: 14px;&quot;&gt;Study 3: Assessing Technological relatedness&amp;nbsp;&lt;/b&gt;&lt;b style=&quot;border-color: var(--border-color); font-size: 14px;&quot;&gt;Impact on Manufacturing Firms Servitization: The Moderating Role of R&amp;amp;D Intensity&lt;/b&gt;" style="whiteSpace=wrap;html=1;" parent="1" vertex="1">
          <mxGeometry x="110" y="828" width="635" height="40" as="geometry" />
        </mxCell>
        <mxCell id="aLaxaShNEx0uPcZiciP7-3" value="&lt;font style=&quot;font-size: 14px;&quot;&gt;Product diversification Strategy&lt;br&gt;&lt;/font&gt;" style="rounded=1;whiteSpace=wrap;html=1;" parent="1" vertex="1">
          <mxGeometry x="260" y="290" width="145" height="36" as="geometry" />
        </mxCell>
        <mxCell id="aLaxaShNEx0uPcZiciP7-4" value="Digital Technology Diversitification" style="rounded=0;whiteSpace=wrap;html=1;" parent="1" vertex="1">
          <mxGeometry x="190" y="140" width="110" height="60" as="geometry" />
        </mxCell>
        <mxCell id="aLaxaShNEx0uPcZiciP7-5" value="" style="endArrow=classic;html=1;rounded=0;exitX=0.361;exitY=1.083;exitDx=0;exitDy=0;exitPerimeter=0;entryX=0.414;entryY=-0.116;entryDx=0;entryDy=0;entryPerimeter=0;" parent="1" source="aLaxaShNEx0uPcZiciP7-4" target="aLaxaShNEx0uPcZiciP7-3" edge="1">
          <mxGeometry width="50" height="50" relative="1" as="geometry">
            <mxPoint x="240" y="235" as="sourcePoint" />
            <mxPoint x="270" y="330" as="targetPoint" />
          </mxGeometry>
        </mxCell>
        <mxCell id="aLaxaShNEx0uPcZiciP7-6" value="Technological relatedness" style="rounded=0;whiteSpace=wrap;html=1;" parent="1" vertex="1">
          <mxGeometry x="200" y="390" width="110" height="60" as="geometry" />
        </mxCell>
        <mxCell id="aLaxaShNEx0uPcZiciP7-7" value="" style="endArrow=classic;html=1;rounded=0;entryX=0.25;entryY=1;entryDx=0;entryDy=0;exitX=0.417;exitY=-0.056;exitDx=0;exitDy=0;exitPerimeter=0;" parent="1" source="aLaxaShNEx0uPcZiciP7-6" target="aLaxaShNEx0uPcZiciP7-4" edge="1">
          <mxGeometry width="50" height="50" relative="1" as="geometry">
            <mxPoint x="230" y="400" as="sourcePoint" />
            <mxPoint x="313" y="306" as="targetPoint" />
          </mxGeometry>
        </mxCell>
        <mxCell id="aLaxaShNEx0uPcZiciP7-8" value="" style="endArrow=classic;html=1;rounded=0;fontStyle=0;entryX=0.006;entryY=0.678;entryDx=0;entryDy=0;entryPerimeter=0;exitX=1;exitY=0.5;exitDx=0;exitDy=0;" parent="1" source="aLaxaShNEx0uPcZiciP7-6" target="wetCiez2Dc8EenrUASXY-3" edge="1">
          <mxGeometry width="50" height="50" relative="1" as="geometry">
            <mxPoint x="310" y="440" as="sourcePoint" />
            <mxPoint x="639" y="269" as="targetPoint" />
          </mxGeometry>
        </mxCell>
        <mxCell id="aLaxaShNEx0uPcZiciP7-9" value="Digital Technology Diversitification" style="rounded=0;whiteSpace=wrap;html=1;" parent="1" vertex="1">
          <mxGeometry x="200" y="630" width="110" height="60" as="geometry" />
        </mxCell>
        <mxCell id="aLaxaShNEx0uPcZiciP7-10" value="&lt;font style=&quot;font-size: 14px;&quot;&gt;Product diversification Strategy&lt;br&gt;&lt;/font&gt;" style="rounded=1;whiteSpace=wrap;html=1;" parent="1" vertex="1">
          <mxGeometry x="370" y="759" width="145" height="36" as="geometry" />
        </mxCell>
        <mxCell id="aLaxaShNEx0uPcZiciP7-11" value="" style="endArrow=classic;html=1;rounded=0;exitX=0.449;exitY=-0.083;exitDx=0;exitDy=0;exitPerimeter=0;" parent="1" source="uU5BGlP82ffnO1x4aT3j-11" edge="1">
          <mxGeometry width="50" height="50" relative="1" as="geometry">
            <mxPoint x="520" y="400" as="sourcePoint" />
            <mxPoint x="480" y="360" as="targetPoint" />
          </mxGeometry>
        </mxCell>
        <mxCell id="aLaxaShNEx0uPcZiciP7-12" value="R&amp;amp;D intensity" style="shape=parallelogram;perimeter=parallelogramPerimeter;whiteSpace=wrap;html=1;fixedSize=1;" parent="1" vertex="1">
          <mxGeometry x="530" y="786" width="178" height="30" as="geometry" />
        </mxCell>
        <mxCell id="aLaxaShNEx0uPcZiciP7-13" value="" style="endArrow=classic;html=1;rounded=0;exitX=0.384;exitY=-0.033;exitDx=0;exitDy=0;exitPerimeter=0;" parent="1" source="aLaxaShNEx0uPcZiciP7-12" edge="1">
          <mxGeometry width="50" height="50" relative="1" as="geometry">
            <mxPoint x="612" y="794" as="sourcePoint" />
            <mxPoint x="570" y="740" as="targetPoint" />
          </mxGeometry>
        </mxCell>
        <mxCell id="aLaxaShNEx0uPcZiciP7-15" value="" style="endArrow=classic;html=1;rounded=0;exitX=0.163;exitY=1;exitDx=0;exitDy=0;exitPerimeter=0;" parent="1" edge="1">
          <mxGeometry width="50" height="50" relative="1" as="geometry">
            <mxPoint x="440.03999999999996" y="159" as="sourcePoint" />
            <mxPoint x="440" y="210" as="targetPoint" />
          </mxGeometry>
        </mxCell>
        <mxCell id="IfAUMYUZn6_eJglMtR5Z-1" value="Technological relatedness" style="rounded=0;whiteSpace=wrap;html=1;" parent="1" vertex="1">
          <mxGeometry x="250" y="1010" width="137.5" height="60" as="geometry" />
        </mxCell>
        <mxCell id="IfAUMYUZn6_eJglMtR5Z-2" value="" style="endArrow=classic;html=1;rounded=0;exitX=0.436;exitY=-0.056;exitDx=0;exitDy=0;exitPerimeter=0;" parent="1" source="IfAUMYUZn6_eJglMtR5Z-1" edge="1">
          <mxGeometry width="50" height="50" relative="1" as="geometry">
            <mxPoint x="316.5" y="1070" as="sourcePoint" />
            <mxPoint x="289" y="930" as="targetPoint" />
          </mxGeometry>
        </mxCell>
      </root>
    </mxGraphModel>
  </diagram>
</mxfile>
